<?xml version="1.0"?>
<svg xmlns="http://www.w3.org/2000/svg" xmlns:xlink="http://www.w3.org/1999/xlink" version="1.1" id="Capa_1" x="0px" y="0px" viewBox="0 0 512 512" style="enable-background:new 0 0 512 512;" xml:space="preserve" width="512px" height="512px" class=""><g><g>
	<g>
		<path d="M512,168V66c0-8.284-6.716-15-15-15H15C6.716,51,0,57.716,0,66v102c0,8.284,6.716,15,15,15h24.225L1.958,248.59    C0.641,250.915,0,253.534,0,256v190c0,8.284,6.716,15,15,15h482c8.284,0,15-6.716,15-15V256c0-2.49-0.671-5.144-1.958-7.41    L472.775,183H497C505.284,183,512,176.284,512,168z M356,366H156c-8.284,0-15-6.716-15-15s6.716-15,15-15h200    c8.284,0,15,6.716,15,15S364.284,366,356,366z M40.775,241l32.955-58h364.541l32.955,58H40.775z" data-original="#000000" class="active-path" data-old_color="#000000" fill="#E3E9ED"/>
	</g>
</g></g> </svg>
