<?xml version="1.0" encoding="UTF-8" standalone="no"?><!-- Generator: Gravit.io --><svg xmlns="http://www.w3.org/2000/svg" xmlns:xlink="http://www.w3.org/1999/xlink" style="isolation:isolate" viewBox="0 0 591 274" width="591pt" height="274pt"><defs><clipPath id="_clipPath_laOfM2hatmn0NhgmGB7qZmKs73Nr4qWm"><rect width="591" height="274"/></clipPath></defs><g clip-path="url(#_clipPath_laOfM2hatmn0NhgmGB7qZmKs73Nr4qWm)"><g><defs><filter id="SPYToDNUEsFX7EVwbtpaJrfWabdJB4m8" x="-200%" y="-200%" width="400%" height="400%" filterUnits="objectBoundingBox" color-interpolation-filters="sRGB"><feGaussianBlur xmlns="http://www.w3.org/2000/svg" in="SourceGraphic" stdDeviation="33.91951159642832"/><feOffset xmlns="http://www.w3.org/2000/svg" dx="0" dy="0" result="pf_100_offsetBlur"/><feFlood xmlns="http://www.w3.org/2000/svg" flood-color="#000000" flood-opacity="0.93"/><feComposite xmlns="http://www.w3.org/2000/svg" in2="pf_100_offsetBlur" operator="in" result="pf_100_dropShadow"/><feBlend xmlns="http://www.w3.org/2000/svg" in="SourceGraphic" in2="pf_100_dropShadow" mode="normal"/></filter></defs><g filter="url(#SPYToDNUEsFX7EVwbtpaJrfWabdJB4m8)"><path d=" M 35.5 180 L 69.687 168.754 L 109.272 180 L 141.659 134.567 L 183.043 153.46 L 216.33 134.567 L 258.164 146.713 L 294.6 146.713 L 331.936 116.125 L 370.171 116.125 L 410.656 128.27 L 446.192 90.035 L 484.877 90.035 L 555.5 41.453" fill="none" vector-effect="non-scaling-stroke" stroke-width="7" stroke="rgb(255,242,181)" stroke-linejoin="miter" stroke-linecap="square" stroke-miterlimit="3"/></g><defs><filter id="DwQfsE2eEYEheSPf9wBQZL6Tc5Pyye1o" x="-200%" y="-200%" width="400%" height="400%" filterUnits="objectBoundingBox" color-interpolation-filters="sRGB"><feGaussianBlur xmlns="http://www.w3.org/2000/svg" stdDeviation="21.46804531419514"/></filter></defs><g opacity="0.75" filter="url(#DwQfsE2eEYEheSPf9wBQZL6Tc5Pyye1o)"><path d=" M 35.5 180 L 69.687 168.754 L 109.272 180 L 141.659 134.567 L 183.043 153.46 L 216.33 134.567 L 258.164 146.713 L 294.6 146.713 L 331.936 116.125 L 370.171 116.125 L 410.656 128.27 L 446.192 90.035 L 484.877 90.035 L 555.5 41.453 L 555.5 180 L 35.5 180 Z " fill="rgb(255,255,255)" fill-opacity="0.46"/></g></g></g></svg>