<?xml version="1.0" encoding="iso-8859-1"?>
<!-- Generator: Adobe Illustrator 19.0.0, SVG Export Plug-In . SVG Version: 6.00 Build 0)  -->
<svg version="1.1" id="Layer_1" xmlns="http://www.w3.org/2000/svg" xmlns:xlink="http://www.w3.org/1999/xlink" x="0px" y="0px"
	 viewBox="0 0 512 512" style="enable-background:new 0 0 512 512;" xml:space="preserve">
<path style="fill:#FF507D;" d="M448,328.058h45.714c10.099,0,18.286-8.186,18.286-18.286v-54.857
	c0-10.099-8.186-18.286-18.286-18.286H448V328.058z"/>
<path style="fill:#FF6991;" d="M310.857,437.772H173.714C78.171,437.772,0,359.601,0,264.058l0,0
	C0,168.515,78.171,90.344,173.714,90.344h137.143c95.543,0,173.714,78.171,173.714,173.714l0,0
	C484.571,359.601,406.4,437.772,310.857,437.772z"/>
<path style="fill:#FF507D;" d="M310.857,45.015v72.758c0,10.099,8.186,18.286,18.286,18.286h26.123
	c11.008,0,19.727-9.703,18.165-20.6c-6.907-48.191-37.193-71.859-52.958-77.394C315.759,36.41,310.857,40.019,310.857,45.015z"/>
<g>
	<path style="fill:#D23C69;" d="M429.714,245.777c-3.705,0-7.197-2.272-8.562-5.951c-2.759-7.379-10.169-12.339-18.447-12.339
		c-8.278,0-15.688,4.96-18.447,12.339c-1.759,4.733-7.026,7.134-11.759,5.37c-4.733-1.763-7.134-7.031-5.366-11.763
		c5.402-14.496,19.696-24.232,35.571-24.232s30.169,9.737,35.571,24.232c1.768,4.733-0.634,10-5.366,11.763
		C431.857,245.589,430.777,245.777,429.714,245.777z"/>
	<path style="fill:#D23C69;" d="M274.286,136.058h-128c-5.049,0-9.143-4.094-9.143-9.143l0,0c0-5.049,4.094-9.143,9.143-9.143h128
		c5.049,0,9.143,4.094,9.143,9.143l0,0C283.429,131.964,279.335,136.058,274.286,136.058z"/>
</g>
<path style="fill:#FFDC64;" d="M251.093,136.058c8.709-9.71,14.05-22.501,14.05-36.571c0-30.297-24.56-54.857-54.857-54.857
	s-54.857,24.56-54.857,54.857c0,14.071,5.343,26.862,14.051,36.571H251.093z"/>
<path style="fill:#FFC850;" d="M244.683,111.619c2.568-7.017,3.08-14.999,0.343-23.462c-3.986-12.326-14.575-21.997-27.285-24.506
	c-23.464-4.632-44.027,13.2-44.027,35.835c0,4.233,0.771,8.265,2.134,12.022c1.103,3.043-0.982,6.264-4.218,6.264h-12.913
	c2.427,6.792,6.041,13.019,10.765,18.286h81.613c4.723-5.266,8.337-11.494,10.765-18.286h-12.95
	C245.713,117.772,243.586,114.618,244.683,111.619z"/>
<path style="fill:#FF507D;" d="M440.606,378.977c-20.315,8.381-42.501,13.081-65.749,13.081h-19.854
	c0.462-24.529-19.264-45.714-44.902-45.714l0,0c-24.83,0-44.958,20.128-44.958,44.958v0.757h-27.429
	c-95.543,0-173.714-78.171-173.714-173.714l0,0c0-44.016,16.728-84.221,43.966-114.918C44.792,129.487,0,191.763,0,264.057l0,0
	c0,98.539,50.274,178.226,67.462,202.591c3.429,4.859,8.967,7.695,14.913,7.695h36.482c10.098,0,18.286-8.187,18.286-18.286v-22.265
	c11.809,2.558,24.026,3.979,36.571,3.979h91.429v18.286c0,10.098,8.187,18.286,18.286,18.286h40.074
	c8.622,0,16.073-6.024,17.88-14.454l5.566-25.97C383.799,426.004,416.379,406.28,440.606,378.977z"/>
<path style="fill:#FFAFC3;" d="M221.714,257.655v-38.272c14.029,2.437,22.857,8.898,22.857,13.533
	c0,6.312,5.117,11.429,11.429,11.429c6.312,0,11.429-5.117,11.429-11.429c0-18.834-19.147-33.56-46.041-36.762
	c-0.816-5.51-5.363-9.809-11.102-9.809s-10.286,4.299-11.102,9.809c-26.894,3.202-46.041,17.928-46.041,36.762
	c0,26.105,25.015,36.112,45.714,42.118v38.272C184.829,310.868,176,304.407,176,299.772c0-6.312-5.117-11.429-11.429-11.429
	s-11.429,5.117-11.429,11.429c0,18.834,19.147,33.56,46.041,36.762c0.816,5.51,5.363,9.809,11.102,9.809s10.286-4.299,11.102-9.809
	c26.894-3.202,46.041-17.928,46.041-36.762C267.429,273.667,242.414,263.66,221.714,257.655z M176,232.915
	c0-4.634,8.829-11.095,22.857-13.533v31.585C182.199,245.365,176,240.268,176,232.915z M221.714,313.305V281.72
	c16.658,5.602,22.857,10.699,22.857,18.053C244.571,304.407,235.743,310.867,221.714,313.305z"/>
<g>
</g>
<g>
</g>
<g>
</g>
<g>
</g>
<g>
</g>
<g>
</g>
<g>
</g>
<g>
</g>
<g>
</g>
<g>
</g>
<g>
</g>
<g>
</g>
<g>
</g>
<g>
</g>
<g>
</g>
</svg>
